<svg xmlns="http://www.w3.org/2000/svg" version="1.1" xmlns:xlink="http://www.w3.org/1999/xlink" xmlns:svgjs="http://svgjs.dev/svgjs" width="2000" height="1999" viewBox="0 0 2000 1999"><g transform="matrix(1,0,0,1,-0.431486880466764,-0.4312711370263287)"><svg viewBox="0 0 343 343" data-background-color="#000000" preserveAspectRatio="xMidYMid meet" height="1999" width="2000" xmlns="http://www.w3.org/2000/svg" xmlns:xlink="http://www.w3.org/1999/xlink"><g id="tight-bounds" transform="matrix(1,0,0,1,0.0740000000000407,0.07400000000001228)"><svg viewBox="0 0 342.85155851775386 342.85155851775386" height="342.85155851775386" width="342.85155851775386"><rect width="342.852" height="342.852" fill="url(#16f6b1dd-dd9c-4c65-847a-bfafab8d3ab5)" mask="url(#c3e1136f-72d2-4533-a155-2afa94c47f25)" data-fill-palette-color="tertiary"></rect><g><svg></svg></g><g><svg viewBox="0 0 342.85155851775386 342.85155851775386" height="342.85155851775386" width="342.85155851775386"><g><path d="M0 171.426c0-94.676 76.75-171.426 171.426-171.426 94.676 0 171.426 76.75 171.426 171.426 0 94.676-76.75 171.426-171.426 171.426-94.676 0-171.426-76.75-171.426-171.426zM171.426 339.873c93.031 0 168.447-75.416 168.447-168.447 0-93.031-75.416-168.447-168.447-168.447-93.031 0-168.447 75.416-168.447 168.447 0 93.031 75.416 168.447 168.447 168.447z" data-fill-palette-color="tertiary" fill="url(#16f6b1dd-dd9c-4c65-847a-bfafab8d3ab5)" stroke="transparent"></path><ellipse rx="164.56874808852186" ry="164.56874808852186" cx="171.42577925887693" cy="171.42577925887693" fill="url(#16f6b1dd-dd9c-4c65-847a-bfafab8d3ab5)" stroke="transparent" stroke-width="0" fill-opacity="1" data-fill-palette-color="tertiary"></ellipse></g><g transform="matrix(1,0,0,1,64.84655864529837,128.18573176488127)"><svg viewBox="0 0 213.1584412271571 86.4800949879913" height="86.4800949879913" width="213.1584412271571"><g><svg viewBox="0 0 213.1584412271571 86.4800949879913" height="86.4800949879913" width="213.1584412271571"><g><svg viewBox="0 0 213.1584412271571 86.4800949879913" height="86.4800949879913" width="213.1584412271571"><g transform="matrix(1,0,0,1,0,53.448168111922264)"><svg viewBox="0 0 213.1584412271571 33.03192687606902" height="33.03192687606902" width="213.1584412271571"><g id="textblocktransform"><svg viewBox="0 0 213.1584412271571 33.03192687606902" height="33.03192687606902" width="213.1584412271571" id="textblock"><g><svg viewBox="0 0 213.1584412271571 33.03192687606902" height="33.03192687606902" width="213.1584412271571"><g transform="matrix(1,0,0,1,0,0)"><svg width="213.1584412271571" viewBox="1.98 -35.11 228.4 35.4" height="33.03192687606902" data-palette-color="#000000"><path d="M9.18 0.27L9.18 0.27 9.08 0.27Q8.28 0.27 7.62 0.16 6.96 0.05 6.2-0.28 5.44-0.61 4.86-1.16 4.27-1.71 3.71-2.67 3.15-3.64 2.78-4.94 2.42-6.25 2.2-8.14 1.98-10.03 1.98-12.4L1.98-12.4Q1.98-15.55 2.39-17.87 2.81-20.19 3.44-21.51 4.08-22.83 5.04-23.61 6.01-24.39 6.88-24.62 7.76-24.85 8.89-24.85L8.89-24.85Q10.52-24.85 11.96-24.32L11.96-24.32Q12.04-24.32 12.13-24.19 12.23-24.07 12.23-24L12.23-24 12.23-21.9Q12.23-21.78 12.13-21.66 12.04-21.53 11.96-21.56L11.96-21.56Q10.55-22 9.67-22L9.67-22Q8.94-22 8.45-21.88 7.96-21.75 7.35-21.22 6.74-20.68 6.37-19.69 6.01-18.7 5.75-16.86 5.49-15.01 5.49-12.4L5.49-12.4Q5.49-9.77 5.73-7.91 5.96-6.05 6.31-5.03 6.67-4 7.26-3.44 7.86-2.88 8.39-2.75 8.91-2.61 9.69-2.61L9.69-2.61Q10.67-2.61 11.96-3.03L11.96-3.03Q12.04-3 12.15-2.84 12.26-2.69 12.26-2.59L12.26-2.59 12.26-0.63Q12.26-0.54 12.15-0.38 12.04-0.22 11.96-0.2L11.96-0.2Q10.69 0.27 9.18 0.27ZM21.16-2.32L21.16-2.32Q23.09-2.32 24.19-4.81 25.29-7.3 25.29-10.94L25.29-10.94Q25.29-12.65 25.12-12.65L25.12-12.65Q25.1-12.65 24.59-12.57 24.09-12.5 24.05-12.48L24.05-12.48Q21.09-11.82 19.81-10.21 18.53-8.59 18.53-6.08L18.53-6.08Q18.53-2.32 21.16-2.32ZM20.51 0.29L20.51 0.29Q18.04 0.29 16.76-1.29 15.48-2.88 15.48-5.81L15.48-5.81Q15.48-7.96 16.14-9.59 16.79-11.23 17.8-12.1 18.8-12.96 20.02-13.55 21.24-14.14 22.29-14.32 23.34-14.5 24.19-14.67 25.05-14.84 25.22-14.97L25.22-14.97 25.22-16.31Q25.22-19.14 24.59-20.62 23.97-22.09 22.26-22.09L22.26-22.09Q20.75-22.09 20.03-21.25 19.31-20.41 18.77-18.6L18.77-18.6Q18.63-18.19 18.48-18.04 18.33-17.9 18.11-17.94L18.11-17.94Q17.77-18.02 16.93-18.29 16.09-18.55 16.06-18.68L16.06-18.68Q15.82-18.92 16.09-20L16.09-20Q16.53-21.56 17.23-22.58 17.94-23.61 19.25-24.23 20.55-24.85 22.43-24.85L22.43-24.85Q25.53-24.85 27.04-22.62 28.54-20.39 28.54-15.16L28.54-15.16 28.54-1.2Q28.54 0 28.02 0L28.02 0 27.44 0Q27.05 0 26.78-1L26.78-1Q26.07-3.98 26.02-4.59L26.02-4.59Q26.02-4.66 25.97-4.7 25.93-4.74 25.89-4.7 25.85-4.66 25.83-4.59L25.83-4.59Q25.22-2.22 23.96-0.96 22.7 0.29 20.51 0.29ZM35.98 0L33.86 0Q33.25 0 33.25-1.56L33.25-1.56 33.25-22.68Q33.25-24.56 33.74-24.56L33.74-24.56 34.42-24.56Q34.69-24.56 34.83-24.22 34.98-23.88 35.13-23L35.13-23 35.57-19.63Q35.66-19.21 35.74-19.21L35.74-19.21Q35.83-19.21 35.88-19.63L35.88-19.63Q36.54-22.05 37.56-23.39 38.57-24.73 39.67-24.76L39.67-24.76 40.06-24.76Q40.57-24.76 40.77-24.49 40.96-24.22 40.96-23.58L40.96-23.58 40.96-21.83Q40.96-21.24 40.86-21.06 40.77-20.87 40.47-20.87L40.47-20.87Q39.57-20.83 39.42-20.78L39.42-20.78Q38.54-20.58 37.87-19.25 37.2-17.92 36.88-16.27 36.57-14.62 36.57-13.09L36.57-13.09 36.57-1.56Q36.57 0 35.98 0L35.98 0ZM54.24 0L52.14 0Q51.53 0 51.53-1.54L51.53-1.54 51.53-22.83Q51.53-24.56 52.09-24.56L52.09-24.56 52.72-24.56Q53.31-24.56 53.46-23.14L53.46-23.14 53.82-19.65Q53.87-19.34 53.99-19.34L53.99-19.34Q54.04-19.34 54.14-19.68L54.14-19.68Q55.39-24.85 58.83-24.85L58.83-24.85Q60.39-24.85 61.46-23.73 62.54-22.61 63.17-19.95L63.17-19.95Q63.25-19.78 63.3-19.78L63.3-19.78Q63.39-19.78 63.44-19.95L63.44-19.95Q64.08-22.44 65.37-23.65 66.66-24.85 68.08-24.85L68.08-24.85Q69.01-24.85 69.7-24.62 70.4-24.39 71.05-23.74 71.69-23.1 72.11-21.98 72.52-20.87 72.77-19.06 73.01-17.24 73.01-14.75L73.01-14.75 73.01-1.54Q73.01 0 72.4 0L72.4 0 70.28 0Q69.69 0 69.69-1.54L69.69-1.54 69.69-15.45Q69.69-19.24 69.14-20.67 68.59-22.09 67.37-22.09L67.37-22.09Q65.93-22.09 64.94-20.06 63.95-18.02 63.95-14.6L63.95-14.6 63.95-1.54Q63.95 0 63.37 0L63.37 0 61.24 0Q60.63 0 60.63-1.54L60.63-1.54 60.63-15.23Q60.63-19.09 60.05-20.59 59.46-22.09 58.24-22.09L58.24-22.09Q57.17-22.09 56.39-20.96 55.61-19.82 55.23-18.12 54.85-16.41 54.85-14.43L54.85-14.43 54.85-1.54Q54.85 0 54.24 0L54.24 0ZM82.75-2.32L82.75-2.32Q84.68-2.32 85.78-4.81 86.88-7.3 86.88-10.94L86.88-10.94Q86.88-12.65 86.71-12.65L86.71-12.65Q86.68-12.65 86.18-12.57 85.68-12.5 85.63-12.48L85.63-12.48Q82.68-11.82 81.4-10.21 80.11-8.59 80.11-6.08L80.11-6.08Q80.11-2.32 82.75-2.32ZM82.09 0.29L82.09 0.29Q79.63 0.29 78.34-1.29 77.06-2.88 77.06-5.81L77.06-5.81Q77.06-7.96 77.72-9.59 78.38-11.23 79.38-12.1 80.38-12.96 81.6-13.55 82.82-14.14 83.87-14.32 84.92-14.5 85.78-14.67 86.63-14.84 86.8-14.97L86.8-14.97 86.8-16.31Q86.8-19.14 86.18-20.62 85.56-22.09 83.85-22.09L83.85-22.09Q82.34-22.09 81.62-21.25 80.9-20.41 80.36-18.6L80.36-18.6Q80.21-18.19 80.07-18.04 79.92-17.9 79.7-17.94L79.7-17.94Q79.36-18.02 78.52-18.29 77.67-18.55 77.65-18.68L77.65-18.68Q77.4-18.92 77.67-20L77.67-20Q78.11-21.56 78.82-22.58 79.53-23.61 80.83-24.23 82.14-24.85 84.02-24.85L84.02-24.85Q87.12-24.85 88.62-22.62 90.12-20.39 90.12-15.16L90.12-15.16 90.12-1.2Q90.12 0 89.61 0L89.61 0 89.03 0Q88.63 0 88.37-1L88.37-1Q87.66-3.98 87.61-4.59L87.61-4.59Q87.61-4.66 87.56-4.7 87.51-4.74 87.48-4.7 87.44-4.66 87.41-4.59L87.41-4.59Q86.8-2.22 85.55-0.96 84.29 0.29 82.09 0.29ZM97.89-28.49L95.47-28.49Q95.18-28.49 95.03-28.75 94.88-29 94.88-29.74L94.88-29.74 94.88-32.28Q94.88-33.01 95.03-33.28 95.18-33.54 95.47-33.54L95.47-33.54 97.89-33.54Q98.45-33.54 98.45-32.28L98.45-32.28 98.45-29.74Q98.45-29 98.31-28.75 98.18-28.49 97.89-28.49L97.89-28.49ZM97.74 0L95.61 0Q95 0 95-1.49L95-1.49 95-23.1Q95-24.56 95.61-24.56L95.61-24.56 97.74-24.56Q98.32-24.56 98.32-23.1L98.32-23.1 98.32-1.49Q98.32 0 97.74 0L97.74 0ZM106.09 0L103.96 0Q103.35 0 103.35-1.22L103.35-1.22 103.35-23.05Q103.35-24.56 103.94-24.56L103.94-24.56 104.4-24.56Q104.74-24.56 104.93-24.34 105.11-24.12 105.23-23.36L105.23-23.36 105.62-20.17Q105.7-19.9 105.79-19.9 105.89-19.9 105.94-20.17L105.94-20.17Q106.33-21.61 106.95-22.58 107.58-23.56 108.32-24.02 109.06-24.49 109.74-24.67 110.41-24.85 111.21-24.85L111.21-24.85Q112.9-24.85 113.96-24.01 115.02-23.17 115.63-20.89 116.24-18.6 116.24-14.72L116.24-14.72 116.24-1.22Q116.24-0.49 116.1-0.24 115.95 0 115.66 0L115.66 0 113.51 0Q113.21 0 113.07-0.24 112.92-0.49 112.92-1.22L112.92-1.22 112.92-15.23Q112.92-18.8 112.34-20.45 111.75-22.09 110.5-22.09L110.5-22.09Q108.87-22.09 107.77-20.01 106.67-17.92 106.67-14.97L106.67-14.97 106.67-1.22Q106.67-0.49 106.53-0.24 106.38 0 106.09 0L106.09 0ZM130.28 0.05L127.98 0.05Q127.08 0.05 126.4-0.11 125.71-0.27 125.04-0.76 124.37-1.25 123.94-2.09 123.52-2.93 123.26-4.33 123-5.74 123-7.67L123-7.67 123-21.04Q123-21.48 122.73-21.48L122.73-21.48 121.17-21.48Q120.59-21.48 120.59-22.56L120.59-22.56 120.59-23.49Q120.59-24.56 121.17-24.56L121.17-24.56 122.73-24.56Q122.98-24.56 123-25.22L123-25.22 123.42-33.86Q123.44-35.11 124.03-35.11L124.03-35.11 125.74-35.11Q126.03-35.11 126.18-34.85 126.32-34.59 126.32-33.86L126.32-33.86 126.32-25.22Q126.32-24.56 126.62-24.56L126.62-24.56 129.77-24.56Q130.06-24.56 130.2-24.34 130.35-24.12 130.35-23.49L130.35-23.49 130.35-22.56Q130.35-21.92 130.2-21.7 130.06-21.48 129.77-21.48L129.77-21.48 126.62-21.48Q126.44-21.48 126.38-21.41 126.32-21.34 126.32-21.04L126.32-21.04 126.32-7.67Q126.32-5.62 126.68-4.49 127.03-3.37 127.48-3.09 127.93-2.81 128.64-2.81L128.64-2.81 130.33-2.81Q130.99-2.81 130.99-2.08L130.99-2.08 130.99-0.78Q130.99 0.05 130.28 0.05L130.28 0.05ZM137.62-13.72L137.62-13.72 144.12-13.72Q144.17-13.72 144.17-14.16L144.17-14.16Q144.02-18.29 143.26-20.2 142.51-22.12 140.92-22.12L140.92-22.12Q137.97-22.12 137.55-15.04L137.55-15.04Q137.55-13.72 137.62-13.72ZM146.88-6.49L146.88-6.01Q146.88-3.3 145.45-1.51 144.02 0.27 141.21 0.27L141.21 0.27Q134.06 0.27 134.06-12.3L134.06-12.3Q134.06-15.41 134.49-17.74 134.91-20.07 135.57-21.4 136.23-22.73 137.18-23.55 138.14-24.37 139.03-24.62 139.92-24.88 140.97-24.88L140.97-24.88Q147.07-24.88 147.07-13.31L147.07-13.31Q147.07-11.55 146.34-11.55L146.34-11.55 137.7-11.55Q137.53-11.55 137.53-11.04L137.53-11.04Q137.53-8.62 137.89-6.76 138.26-4.91 139.15-3.7 140.04-2.49 141.36-2.49L141.36-2.49Q142.26-2.49 142.89-2.92 143.51-3.34 143.81-4.15 144.12-4.96 144.23-5.53 144.34-6.1 144.44-7.01L144.44-7.01Q144.48-7.5 144.75-7.5L144.75-7.5 146.41-7.5Q146.88-7.5 146.88-6.49L146.88-6.49ZM154.47 0L152.34 0Q151.73 0 151.73-1.22L151.73-1.22 151.73-23.05Q151.73-24.56 152.32-24.56L152.32-24.56 152.78-24.56Q153.12-24.56 153.31-24.34 153.49-24.12 153.61-23.36L153.61-23.36 154-20.17Q154.08-19.9 154.17-19.9 154.27-19.9 154.32-20.17L154.32-20.17Q154.71-21.61 155.33-22.58 155.96-23.56 156.7-24.02 157.45-24.49 158.12-24.67 158.79-24.85 159.59-24.85L159.59-24.85Q161.28-24.85 162.34-24.01 163.4-23.17 164.01-20.89 164.62-18.6 164.62-14.72L164.62-14.72 164.62-1.22Q164.62-0.49 164.48-0.24 164.33 0 164.04 0L164.04 0 161.89 0Q161.6 0 161.45-0.24 161.3-0.49 161.3-1.22L161.3-1.22 161.3-15.23Q161.3-18.8 160.72-20.45 160.13-22.09 158.89-22.09L158.89-22.09Q157.25-22.09 156.15-20.01 155.05-17.92 155.05-14.97L155.05-14.97 155.05-1.22Q155.05-0.49 154.91-0.24 154.76 0 154.47 0L154.47 0ZM174.48-2.32L174.48-2.32Q176.41-2.32 177.51-4.81 178.61-7.3 178.61-10.94L178.61-10.94Q178.61-12.65 178.44-12.65L178.44-12.65Q178.41-12.65 177.91-12.57 177.41-12.5 177.37-12.48L177.37-12.48Q174.41-11.82 173.13-10.21 171.85-8.59 171.85-6.08L171.85-6.08Q171.85-2.32 174.48-2.32ZM173.83 0.29L173.83 0.29Q171.36 0.29 170.08-1.29 168.8-2.88 168.8-5.81L168.8-5.81Q168.8-7.96 169.45-9.59 170.11-11.23 171.12-12.1 172.12-12.96 173.34-13.55 174.56-14.14 175.61-14.32 176.66-14.5 177.51-14.67 178.37-14.84 178.54-14.97L178.54-14.97 178.54-16.31Q178.54-19.14 177.91-20.62 177.29-22.09 175.58-22.09L175.58-22.09Q174.07-22.09 173.35-21.25 172.63-20.41 172.09-18.6L172.09-18.6Q171.95-18.19 171.8-18.04 171.65-17.9 171.43-17.94L171.43-17.94Q171.09-18.02 170.25-18.29 169.41-18.55 169.38-18.68L169.38-18.68Q169.14-18.92 169.41-20L169.41-20Q169.85-21.56 170.55-22.58 171.26-23.61 172.57-24.23 173.87-24.85 175.75-24.85L175.75-24.85Q178.85-24.85 180.36-22.62 181.86-20.39 181.86-15.16L181.86-15.16 181.86-1.2Q181.86 0 181.34 0L181.34 0 180.76 0Q180.37 0 180.1-1L180.1-1Q179.39-3.98 179.34-4.59L179.34-4.59Q179.34-4.66 179.29-4.7 179.24-4.74 179.21-4.7 179.17-4.66 179.15-4.59L179.15-4.59Q178.54-2.22 177.28-0.96 176.02 0.29 173.83 0.29ZM189.3 0L187.18 0Q186.57 0 186.57-1.22L186.57-1.22 186.57-23.05Q186.57-24.56 187.15-24.56L187.15-24.56 187.62-24.56Q187.96-24.56 188.14-24.34 188.32-24.12 188.45-23.36L188.45-23.36 188.84-20.17Q188.91-19.9 189.01-19.9 189.11-19.9 189.15-20.17L189.15-20.17Q189.55-21.61 190.17-22.58 190.79-23.56 191.53-24.02 192.28-24.49 192.95-24.67 193.62-24.85 194.43-24.85L194.43-24.85Q196.11-24.85 197.17-24.01 198.24-23.17 198.85-20.89 199.46-18.6 199.46-14.72L199.46-14.72 199.46-1.22Q199.46-0.49 199.31-0.24 199.16 0 198.87 0L198.87 0 196.72 0Q196.43 0 196.28-0.24 196.14-0.49 196.14-1.22L196.14-1.22 196.14-15.23Q196.14-18.8 195.55-20.45 194.97-22.09 193.72-22.09L193.72-22.09Q192.08-22.09 190.99-20.01 189.89-17.92 189.89-14.97L189.89-14.97 189.89-1.22Q189.89-0.49 189.74-0.24 189.59 0 189.3 0L189.3 0ZM210.95 0.27L210.95 0.27 210.86 0.27Q210.05 0.27 209.39 0.16 208.73 0.05 207.98-0.28 207.22-0.61 206.63-1.16 206.05-1.71 205.49-2.67 204.92-3.64 204.56-4.94 204.19-6.25 203.97-8.14 203.75-10.03 203.75-12.4L203.75-12.4Q203.75-15.55 204.17-17.87 204.58-20.19 205.22-21.51 205.85-22.83 206.82-23.61 207.78-24.39 208.66-24.62 209.54-24.85 210.66-24.85L210.66-24.85Q212.3-24.85 213.74-24.32L213.74-24.32Q213.81-24.32 213.91-24.19 214.01-24.07 214.01-24L214.01-24 214.01-21.9Q214.01-21.78 213.91-21.66 213.81-21.53 213.74-21.56L213.74-21.56Q212.32-22 211.44-22L211.44-22Q210.71-22 210.22-21.88 209.73-21.75 209.12-21.22 208.51-20.68 208.15-19.69 207.78-18.7 207.52-16.86 207.27-15.01 207.27-12.4L207.27-12.4Q207.27-9.77 207.5-7.91 207.73-6.05 208.09-5.03 208.44-4 209.04-3.44 209.64-2.88 210.16-2.75 210.69-2.61 211.47-2.61L211.47-2.61Q212.44-2.61 213.74-3.03L213.74-3.03Q213.81-3 213.92-2.84 214.03-2.69 214.03-2.59L214.03-2.59 214.03-0.63Q214.03-0.54 213.92-0.38 213.81-0.22 213.74-0.2L213.74-0.2Q212.47 0.27 210.95 0.27ZM220.94-13.72L220.94-13.72 227.43-13.72Q227.48-13.72 227.48-14.16L227.48-14.16Q227.33-18.29 226.58-20.2 225.82-22.12 224.23-22.12L224.23-22.12Q221.28-22.12 220.86-15.04L220.86-15.04Q220.86-13.72 220.94-13.72ZM230.19-6.49L230.19-6.01Q230.19-3.3 228.76-1.51 227.33 0.27 224.53 0.27L224.53 0.27Q217.37 0.27 217.37-12.3L217.37-12.3Q217.37-15.41 217.8-17.74 218.23-20.07 218.89-21.4 219.55-22.73 220.5-23.55 221.45-24.37 222.34-24.62 223.23-24.88 224.28-24.88L224.28-24.88Q230.38-24.88 230.38-13.31L230.38-13.31Q230.38-11.55 229.65-11.55L229.65-11.55 221.01-11.55Q220.84-11.55 220.84-11.04L220.84-11.04Q220.84-8.62 221.21-6.76 221.57-4.91 222.46-3.7 223.35-2.49 224.67-2.49L224.67-2.49Q225.58-2.49 226.2-2.92 226.82-3.34 227.13-4.15 227.43-4.96 227.54-5.53 227.65-6.1 227.75-7.01L227.75-7.01Q227.8-7.5 228.07-7.5L228.07-7.5 229.73-7.5Q230.19-7.5 230.19-6.49L230.19-6.49Z" opacity="1" transform="matrix(1,0,0,1,0,0)" fill="#000000" class="wordmark-text-0" data-fill-palette-color="quaternary" id="text-0"></path></svg></g></svg></g></svg></g></svg></g><g transform="matrix(1,0,0,1,44.70601524469709,0)"><svg viewBox="0 0 123.74641073776293 45.65012294272739" height="45.65012294272739" width="123.74641073776293"><g><svg xmlns="http://www.w3.org/2000/svg" xmlns:xlink="http://www.w3.org/1999/xlink" version="1.1" x="0" y="0" viewBox="0.2962725501305952 33.94692138280563 99.40639946256866 36.67107861719437" enable-background="new 0 33.947 100 36.669" xml:space="preserve" id="icon-0" width="123.74641073776293" height="45.65012294272739" class="icon-icon-0" data-fill-palette-color="quaternary"><g fill="#000000" data-fill-palette-color="quaternary"><path d="M15.524 55.357A7.631 7.631 0 0 0 15.524 70.618 7.631 7.631 0 0 0 15.524 55.357M15.524 66.189A3.22 3.22 0 1 1 15.526 59.747 3.22 3.22 0 0 1 15.524 66.189" fill="#000000" data-fill-palette-color="quaternary"></path><path d="M82.53 55.355A7.63 7.63 0 0 0 74.898 62.984 7.632 7.632 0 0 0 90.16 62.984 7.63 7.63 0 0 0 82.53 55.355M82.53 66.189A3.222 3.222 0 1 1 85.753 62.969 3.22 3.22 0 0 1 82.53 66.189" fill="#000000" data-fill-palette-color="quaternary"></path><path d="M78.23 44.515S59.466 35.765 53.476 34.497C47.489 33.229 26.879 34.382 24.922 35.648L13.407 41.288 2.125 46.815 0.298 57.465S0.248 63.783 0.686 65.238H6.213L6.284 62.988C6.284 57.885 10.422 53.748 15.527 53.748 20.63 53.748 24.765 57.886 24.765 62.988L24.923 65.238H73.282L73.289 62.408C73.289 57.305 77.145 53.538 82.248 53.538S91.771 57.306 91.771 62.408L91.961 65.024S97.806 65.354 99.649 64.663C99.649 64.663 100.339 54.876 96.771 51.306 93.603 48.308 87.213 46.44 78.23 44.515M25.956 45.896S28.319 40.886 30.899 38.972C32.81 37.345 43.345 37.389 43.345 37.389L43.734 47.104zM71.613 48.198L46.915 47.22 46.338 37.374C55.492 37.03 65.914 41.923 71.901 45.434 77.89 48.946 71.613 48.198 71.613 48.198" fill="#000000" data-fill-palette-color="quaternary"></path></g></svg></g></svg></g><g></g></svg></g></svg></g></svg></g></svg></g><defs></defs><mask id="c3e1136f-72d2-4533-a155-2afa94c47f25"><g id="SvgjsG1469"><svg viewBox="0 0 342.85155851775386 342.85155851775386" height="342.85155851775386" width="342.85155851775386"><g><svg></svg></g><g><svg viewBox="0 0 342.85155851775386 342.85155851775386" height="342.85155851775386" width="342.85155851775386"><g><path d="M0 171.426c0-94.676 76.75-171.426 171.426-171.426 94.676 0 171.426 76.75 171.426 171.426 0 94.676-76.75 171.426-171.426 171.426-94.676 0-171.426-76.75-171.426-171.426zM171.426 339.873c93.031 0 168.447-75.416 168.447-168.447 0-93.031-75.416-168.447-168.447-168.447-93.031 0-168.447 75.416-168.447 168.447 0 93.031 75.416 168.447 168.447 168.447z" fill="white" stroke="transparent"></path><ellipse rx="164.56874808852186" ry="164.56874808852186" cx="171.42577925887693" cy="171.42577925887693" fill="white" stroke="transparent" stroke-width="0" fill-opacity="1"></ellipse></g><g transform="matrix(1,0,0,1,64.84655864529837,128.18573176488127)"><svg viewBox="0 0 213.1584412271571 86.4800949879913" height="86.4800949879913" width="213.1584412271571"><g><svg viewBox="0 0 213.1584412271571 86.4800949879913" height="86.4800949879913" width="213.1584412271571"><g><svg viewBox="0 0 213.1584412271571 86.4800949879913" height="86.4800949879913" width="213.1584412271571"><g transform="matrix(1,0,0,1,0,53.448168111922264)"><svg viewBox="0 0 213.1584412271571 33.03192687606902" height="33.03192687606902" width="213.1584412271571"><g id="SvgjsG1468"><svg viewBox="0 0 213.1584412271571 33.03192687606902" height="33.03192687606902" width="213.1584412271571" id="SvgjsSvg1467"><g><svg viewBox="0 0 213.1584412271571 33.03192687606902" height="33.03192687606902" width="213.1584412271571"><g transform="matrix(1,0,0,1,0,0)"><svg width="213.1584412271571" viewBox="1.98 -35.11 228.4 35.4" height="33.03192687606902" data-palette-color="#000000"><path d="M9.18 0.27L9.18 0.27 9.08 0.27Q8.28 0.27 7.62 0.16 6.96 0.05 6.2-0.28 5.44-0.61 4.86-1.16 4.27-1.71 3.71-2.67 3.15-3.64 2.78-4.94 2.42-6.25 2.2-8.14 1.98-10.03 1.98-12.4L1.98-12.4Q1.98-15.55 2.39-17.87 2.81-20.19 3.44-21.51 4.08-22.83 5.04-23.61 6.01-24.39 6.88-24.62 7.76-24.85 8.89-24.85L8.89-24.85Q10.52-24.85 11.96-24.32L11.96-24.32Q12.04-24.32 12.13-24.19 12.23-24.07 12.23-24L12.23-24 12.23-21.9Q12.23-21.78 12.13-21.66 12.04-21.53 11.96-21.56L11.96-21.56Q10.55-22 9.67-22L9.67-22Q8.94-22 8.45-21.88 7.96-21.75 7.35-21.22 6.74-20.68 6.37-19.69 6.01-18.7 5.75-16.86 5.49-15.01 5.49-12.4L5.49-12.4Q5.49-9.77 5.73-7.91 5.96-6.05 6.31-5.03 6.67-4 7.26-3.44 7.86-2.88 8.39-2.75 8.91-2.61 9.69-2.61L9.69-2.61Q10.67-2.61 11.96-3.03L11.96-3.03Q12.04-3 12.15-2.84 12.26-2.69 12.26-2.59L12.26-2.59 12.26-0.63Q12.26-0.54 12.15-0.38 12.04-0.22 11.96-0.2L11.96-0.2Q10.69 0.27 9.18 0.27ZM21.16-2.32L21.16-2.32Q23.09-2.32 24.19-4.81 25.29-7.3 25.29-10.94L25.29-10.94Q25.29-12.65 25.12-12.65L25.12-12.65Q25.1-12.65 24.59-12.57 24.09-12.5 24.05-12.48L24.05-12.48Q21.09-11.82 19.81-10.21 18.53-8.59 18.53-6.08L18.53-6.08Q18.53-2.32 21.16-2.32ZM20.51 0.29L20.51 0.29Q18.04 0.29 16.76-1.29 15.48-2.88 15.48-5.81L15.48-5.81Q15.48-7.96 16.14-9.59 16.79-11.23 17.8-12.1 18.8-12.96 20.02-13.55 21.24-14.14 22.29-14.32 23.34-14.5 24.19-14.67 25.05-14.84 25.22-14.97L25.22-14.97 25.22-16.31Q25.22-19.14 24.59-20.62 23.97-22.09 22.26-22.09L22.26-22.09Q20.75-22.09 20.03-21.25 19.31-20.41 18.77-18.6L18.77-18.6Q18.63-18.19 18.48-18.04 18.33-17.9 18.11-17.94L18.11-17.94Q17.77-18.02 16.93-18.29 16.09-18.55 16.06-18.68L16.06-18.68Q15.82-18.92 16.09-20L16.09-20Q16.53-21.56 17.23-22.58 17.94-23.61 19.25-24.23 20.55-24.85 22.43-24.85L22.43-24.85Q25.53-24.85 27.04-22.62 28.54-20.39 28.54-15.16L28.54-15.16 28.54-1.2Q28.54 0 28.02 0L28.02 0 27.44 0Q27.05 0 26.78-1L26.78-1Q26.07-3.98 26.02-4.59L26.02-4.59Q26.02-4.66 25.97-4.7 25.93-4.74 25.89-4.7 25.85-4.66 25.83-4.59L25.83-4.59Q25.22-2.22 23.96-0.96 22.7 0.29 20.51 0.29ZM35.98 0L33.86 0Q33.25 0 33.25-1.56L33.25-1.56 33.25-22.68Q33.25-24.56 33.74-24.56L33.74-24.56 34.42-24.56Q34.69-24.56 34.83-24.22 34.98-23.88 35.13-23L35.13-23 35.57-19.63Q35.66-19.21 35.74-19.21L35.74-19.21Q35.83-19.21 35.88-19.63L35.88-19.63Q36.54-22.05 37.56-23.39 38.57-24.73 39.67-24.76L39.67-24.76 40.06-24.76Q40.57-24.76 40.77-24.49 40.96-24.22 40.96-23.58L40.96-23.58 40.96-21.83Q40.96-21.24 40.86-21.06 40.77-20.87 40.47-20.87L40.47-20.87Q39.57-20.83 39.42-20.78L39.42-20.78Q38.54-20.58 37.87-19.25 37.2-17.92 36.88-16.27 36.57-14.62 36.57-13.09L36.57-13.09 36.57-1.56Q36.57 0 35.98 0L35.98 0ZM54.24 0L52.14 0Q51.53 0 51.53-1.54L51.53-1.54 51.53-22.83Q51.53-24.56 52.09-24.56L52.09-24.56 52.72-24.56Q53.31-24.56 53.46-23.14L53.46-23.14 53.82-19.65Q53.87-19.34 53.99-19.34L53.99-19.34Q54.04-19.34 54.14-19.68L54.14-19.68Q55.39-24.85 58.83-24.85L58.83-24.85Q60.39-24.85 61.46-23.73 62.54-22.61 63.17-19.95L63.17-19.95Q63.25-19.78 63.3-19.78L63.3-19.78Q63.39-19.78 63.44-19.95L63.44-19.95Q64.08-22.44 65.37-23.65 66.66-24.85 68.08-24.85L68.08-24.85Q69.01-24.85 69.7-24.62 70.4-24.39 71.05-23.74 71.69-23.1 72.11-21.98 72.52-20.87 72.77-19.06 73.01-17.24 73.01-14.75L73.01-14.75 73.01-1.54Q73.01 0 72.4 0L72.4 0 70.28 0Q69.69 0 69.69-1.54L69.69-1.54 69.69-15.45Q69.69-19.24 69.14-20.67 68.59-22.09 67.37-22.09L67.37-22.09Q65.93-22.09 64.94-20.06 63.95-18.02 63.95-14.6L63.95-14.6 63.95-1.54Q63.95 0 63.37 0L63.37 0 61.24 0Q60.63 0 60.63-1.54L60.63-1.54 60.63-15.23Q60.63-19.09 60.05-20.59 59.46-22.09 58.24-22.09L58.24-22.09Q57.17-22.09 56.39-20.96 55.61-19.82 55.23-18.12 54.85-16.41 54.85-14.43L54.85-14.43 54.85-1.54Q54.85 0 54.24 0L54.24 0ZM82.75-2.32L82.75-2.32Q84.68-2.32 85.78-4.81 86.88-7.3 86.88-10.94L86.88-10.94Q86.88-12.65 86.71-12.65L86.71-12.65Q86.68-12.65 86.18-12.57 85.68-12.5 85.63-12.48L85.63-12.48Q82.68-11.82 81.4-10.21 80.11-8.59 80.11-6.08L80.11-6.08Q80.11-2.32 82.75-2.32ZM82.09 0.29L82.09 0.29Q79.63 0.29 78.34-1.29 77.06-2.88 77.06-5.81L77.06-5.81Q77.06-7.96 77.72-9.59 78.38-11.23 79.38-12.1 80.38-12.96 81.6-13.55 82.82-14.14 83.87-14.32 84.92-14.5 85.78-14.67 86.63-14.84 86.8-14.97L86.8-14.97 86.8-16.31Q86.8-19.14 86.18-20.62 85.56-22.09 83.85-22.09L83.85-22.09Q82.34-22.09 81.62-21.25 80.9-20.41 80.36-18.6L80.36-18.6Q80.21-18.19 80.07-18.04 79.92-17.9 79.7-17.94L79.7-17.94Q79.36-18.02 78.52-18.29 77.67-18.55 77.65-18.68L77.65-18.68Q77.4-18.92 77.67-20L77.67-20Q78.11-21.56 78.82-22.58 79.53-23.61 80.83-24.23 82.14-24.85 84.02-24.85L84.02-24.85Q87.12-24.85 88.62-22.62 90.12-20.39 90.12-15.16L90.12-15.16 90.12-1.2Q90.12 0 89.61 0L89.61 0 89.03 0Q88.63 0 88.37-1L88.37-1Q87.66-3.98 87.61-4.59L87.61-4.59Q87.61-4.66 87.56-4.7 87.51-4.74 87.48-4.7 87.44-4.66 87.41-4.59L87.41-4.59Q86.8-2.22 85.55-0.96 84.29 0.29 82.09 0.29ZM97.89-28.49L95.47-28.49Q95.18-28.49 95.03-28.75 94.88-29 94.88-29.74L94.88-29.74 94.88-32.28Q94.88-33.01 95.03-33.28 95.18-33.54 95.47-33.54L95.47-33.54 97.89-33.54Q98.45-33.54 98.45-32.28L98.45-32.28 98.45-29.74Q98.45-29 98.31-28.75 98.18-28.49 97.89-28.49L97.89-28.49ZM97.74 0L95.61 0Q95 0 95-1.49L95-1.49 95-23.1Q95-24.56 95.61-24.56L95.61-24.56 97.74-24.56Q98.32-24.56 98.32-23.1L98.32-23.1 98.32-1.49Q98.32 0 97.74 0L97.74 0ZM106.09 0L103.96 0Q103.35 0 103.35-1.22L103.35-1.22 103.35-23.05Q103.35-24.56 103.94-24.56L103.94-24.56 104.4-24.56Q104.74-24.56 104.93-24.34 105.11-24.12 105.23-23.36L105.23-23.36 105.62-20.17Q105.7-19.9 105.79-19.9 105.89-19.9 105.94-20.17L105.94-20.17Q106.33-21.61 106.95-22.58 107.58-23.56 108.32-24.02 109.06-24.49 109.74-24.67 110.41-24.85 111.21-24.85L111.21-24.85Q112.9-24.85 113.96-24.01 115.02-23.17 115.63-20.89 116.24-18.6 116.24-14.72L116.24-14.72 116.24-1.22Q116.24-0.49 116.1-0.24 115.95 0 115.66 0L115.66 0 113.51 0Q113.21 0 113.07-0.24 112.92-0.49 112.92-1.22L112.92-1.22 112.92-15.23Q112.92-18.8 112.34-20.45 111.75-22.09 110.5-22.09L110.5-22.09Q108.87-22.09 107.77-20.01 106.67-17.92 106.67-14.97L106.67-14.97 106.67-1.22Q106.67-0.49 106.53-0.24 106.38 0 106.09 0L106.09 0ZM130.28 0.05L127.98 0.05Q127.08 0.05 126.4-0.11 125.71-0.27 125.04-0.76 124.37-1.25 123.94-2.09 123.52-2.93 123.26-4.33 123-5.74 123-7.67L123-7.67 123-21.04Q123-21.48 122.73-21.48L122.73-21.48 121.17-21.48Q120.59-21.48 120.59-22.56L120.59-22.56 120.59-23.49Q120.59-24.56 121.17-24.56L121.17-24.56 122.73-24.56Q122.98-24.56 123-25.22L123-25.22 123.42-33.86Q123.44-35.11 124.03-35.11L124.03-35.11 125.74-35.11Q126.03-35.11 126.18-34.85 126.32-34.59 126.32-33.86L126.32-33.86 126.32-25.22Q126.32-24.56 126.62-24.56L126.62-24.56 129.77-24.56Q130.06-24.56 130.2-24.34 130.35-24.12 130.35-23.49L130.35-23.49 130.35-22.56Q130.35-21.92 130.2-21.7 130.06-21.48 129.77-21.48L129.77-21.48 126.62-21.48Q126.44-21.48 126.38-21.41 126.32-21.34 126.32-21.04L126.32-21.04 126.32-7.67Q126.32-5.62 126.68-4.49 127.03-3.37 127.48-3.09 127.93-2.81 128.64-2.81L128.64-2.81 130.33-2.81Q130.99-2.81 130.99-2.08L130.99-2.08 130.99-0.78Q130.99 0.05 130.28 0.05L130.28 0.05ZM137.62-13.72L137.62-13.72 144.12-13.72Q144.17-13.72 144.17-14.16L144.17-14.16Q144.02-18.29 143.26-20.2 142.51-22.12 140.92-22.12L140.92-22.12Q137.97-22.12 137.55-15.04L137.55-15.04Q137.55-13.72 137.62-13.72ZM146.88-6.49L146.88-6.01Q146.88-3.3 145.45-1.51 144.02 0.27 141.21 0.27L141.21 0.27Q134.06 0.27 134.06-12.3L134.06-12.3Q134.06-15.41 134.49-17.74 134.91-20.07 135.57-21.4 136.23-22.73 137.18-23.55 138.14-24.37 139.03-24.62 139.92-24.88 140.97-24.88L140.97-24.88Q147.07-24.88 147.07-13.31L147.07-13.31Q147.07-11.55 146.34-11.55L146.34-11.55 137.7-11.55Q137.53-11.55 137.53-11.04L137.53-11.04Q137.53-8.62 137.89-6.76 138.26-4.91 139.15-3.7 140.04-2.49 141.36-2.49L141.36-2.49Q142.26-2.49 142.89-2.92 143.51-3.34 143.81-4.15 144.12-4.96 144.23-5.53 144.34-6.1 144.44-7.01L144.44-7.01Q144.48-7.5 144.75-7.5L144.75-7.5 146.41-7.5Q146.88-7.5 146.88-6.49L146.88-6.49ZM154.47 0L152.34 0Q151.73 0 151.73-1.22L151.73-1.22 151.73-23.05Q151.73-24.56 152.32-24.56L152.32-24.56 152.78-24.56Q153.12-24.56 153.31-24.34 153.49-24.12 153.61-23.36L153.61-23.36 154-20.17Q154.08-19.9 154.17-19.9 154.27-19.9 154.32-20.17L154.32-20.17Q154.71-21.61 155.33-22.58 155.96-23.56 156.7-24.02 157.45-24.49 158.12-24.67 158.79-24.85 159.59-24.85L159.59-24.85Q161.28-24.85 162.34-24.01 163.4-23.17 164.01-20.89 164.62-18.6 164.62-14.72L164.62-14.72 164.62-1.22Q164.62-0.49 164.48-0.24 164.33 0 164.04 0L164.04 0 161.89 0Q161.6 0 161.45-0.24 161.3-0.49 161.3-1.22L161.3-1.22 161.3-15.23Q161.3-18.8 160.72-20.45 160.13-22.09 158.89-22.09L158.89-22.09Q157.25-22.09 156.15-20.01 155.05-17.92 155.05-14.97L155.05-14.97 155.05-1.22Q155.05-0.49 154.91-0.24 154.76 0 154.47 0L154.47 0ZM174.48-2.32L174.48-2.32Q176.41-2.32 177.51-4.81 178.61-7.3 178.61-10.94L178.61-10.94Q178.61-12.65 178.44-12.65L178.44-12.65Q178.41-12.65 177.91-12.57 177.41-12.5 177.37-12.48L177.37-12.48Q174.41-11.82 173.13-10.21 171.85-8.59 171.85-6.08L171.85-6.08Q171.85-2.32 174.48-2.32ZM173.83 0.29L173.83 0.29Q171.36 0.29 170.08-1.29 168.8-2.88 168.8-5.81L168.8-5.81Q168.8-7.96 169.45-9.59 170.11-11.23 171.12-12.1 172.12-12.96 173.34-13.55 174.56-14.14 175.61-14.32 176.66-14.5 177.51-14.67 178.37-14.84 178.54-14.97L178.54-14.97 178.54-16.31Q178.54-19.14 177.91-20.62 177.29-22.09 175.58-22.09L175.58-22.09Q174.07-22.09 173.35-21.25 172.63-20.41 172.09-18.6L172.09-18.6Q171.95-18.19 171.8-18.04 171.65-17.9 171.43-17.94L171.43-17.94Q171.09-18.02 170.25-18.29 169.41-18.55 169.38-18.68L169.38-18.68Q169.14-18.92 169.41-20L169.41-20Q169.85-21.56 170.55-22.58 171.26-23.61 172.57-24.23 173.87-24.85 175.75-24.85L175.75-24.85Q178.85-24.85 180.36-22.62 181.86-20.39 181.86-15.16L181.86-15.16 181.86-1.2Q181.86 0 181.34 0L181.34 0 180.76 0Q180.37 0 180.1-1L180.1-1Q179.39-3.98 179.34-4.59L179.34-4.59Q179.34-4.66 179.29-4.7 179.24-4.74 179.21-4.7 179.17-4.66 179.15-4.59L179.15-4.59Q178.54-2.22 177.28-0.96 176.02 0.29 173.83 0.29ZM189.3 0L187.18 0Q186.57 0 186.57-1.22L186.57-1.22 186.57-23.05Q186.57-24.56 187.15-24.56L187.15-24.56 187.62-24.56Q187.96-24.56 188.14-24.34 188.32-24.12 188.45-23.36L188.45-23.36 188.84-20.17Q188.91-19.9 189.01-19.9 189.11-19.9 189.15-20.17L189.15-20.17Q189.55-21.61 190.17-22.58 190.79-23.56 191.53-24.02 192.28-24.49 192.95-24.67 193.62-24.85 194.43-24.85L194.43-24.85Q196.11-24.85 197.17-24.01 198.24-23.17 198.85-20.89 199.46-18.6 199.46-14.72L199.46-14.72 199.46-1.22Q199.46-0.49 199.31-0.24 199.16 0 198.87 0L198.87 0 196.72 0Q196.43 0 196.28-0.24 196.14-0.49 196.14-1.22L196.14-1.22 196.14-15.23Q196.14-18.8 195.55-20.45 194.97-22.09 193.72-22.09L193.72-22.09Q192.08-22.09 190.99-20.01 189.89-17.92 189.89-14.97L189.89-14.97 189.89-1.22Q189.89-0.49 189.74-0.24 189.59 0 189.3 0L189.3 0ZM210.95 0.27L210.95 0.27 210.86 0.27Q210.05 0.27 209.39 0.16 208.73 0.05 207.98-0.28 207.22-0.61 206.63-1.16 206.05-1.71 205.49-2.67 204.92-3.64 204.56-4.94 204.19-6.25 203.97-8.14 203.75-10.03 203.75-12.4L203.75-12.4Q203.75-15.55 204.17-17.87 204.58-20.19 205.22-21.51 205.85-22.83 206.82-23.61 207.78-24.39 208.66-24.62 209.54-24.85 210.66-24.85L210.66-24.85Q212.3-24.85 213.74-24.32L213.74-24.32Q213.81-24.32 213.91-24.19 214.01-24.07 214.01-24L214.01-24 214.01-21.9Q214.01-21.78 213.91-21.66 213.81-21.53 213.74-21.56L213.74-21.56Q212.32-22 211.44-22L211.44-22Q210.71-22 210.22-21.88 209.73-21.75 209.12-21.22 208.51-20.68 208.15-19.69 207.78-18.7 207.52-16.86 207.27-15.01 207.27-12.4L207.27-12.4Q207.27-9.77 207.5-7.91 207.73-6.05 208.09-5.03 208.44-4 209.04-3.44 209.64-2.88 210.16-2.75 210.69-2.61 211.47-2.61L211.47-2.61Q212.44-2.61 213.74-3.03L213.74-3.03Q213.81-3 213.92-2.84 214.03-2.69 214.03-2.59L214.03-2.59 214.03-0.63Q214.03-0.54 213.92-0.38 213.81-0.22 213.74-0.2L213.74-0.2Q212.47 0.27 210.95 0.27ZM220.94-13.72L220.94-13.72 227.43-13.72Q227.48-13.72 227.48-14.16L227.48-14.16Q227.33-18.29 226.58-20.2 225.82-22.12 224.23-22.12L224.23-22.12Q221.28-22.12 220.86-15.04L220.86-15.04Q220.86-13.72 220.94-13.72ZM230.19-6.49L230.19-6.01Q230.19-3.3 228.76-1.51 227.33 0.27 224.53 0.27L224.53 0.27Q217.37 0.27 217.37-12.3L217.37-12.3Q217.37-15.41 217.8-17.74 218.23-20.07 218.89-21.4 219.55-22.73 220.5-23.55 221.45-24.37 222.34-24.62 223.23-24.88 224.28-24.88L224.28-24.88Q230.38-24.88 230.38-13.31L230.38-13.31Q230.38-11.55 229.65-11.55L229.65-11.55 221.01-11.55Q220.84-11.55 220.84-11.04L220.84-11.04Q220.84-8.62 221.21-6.76 221.57-4.91 222.46-3.7 223.35-2.49 224.67-2.49L224.67-2.49Q225.58-2.49 226.2-2.92 226.82-3.34 227.13-4.15 227.43-4.96 227.54-5.53 227.65-6.1 227.75-7.01L227.75-7.01Q227.8-7.5 228.07-7.5L228.07-7.5 229.73-7.5Q230.19-7.5 230.19-6.49L230.19-6.49Z" opacity="1" transform="matrix(1,0,0,1,0,0)" fill="black" class="wordmark-text-0" id="SvgjsPath1466"></path></svg></g></svg></g></svg></g></svg></g><g transform="matrix(1,0,0,1,44.70601524469709,0)"><svg viewBox="0 0 123.74641073776293 45.65012294272739" height="45.65012294272739" width="123.74641073776293"><g><svg xmlns="http://www.w3.org/2000/svg" xmlns:xlink="http://www.w3.org/1999/xlink" version="1.1" x="0" y="0" viewBox="0.2962725501305952 33.94692138280563 99.40639946256866 36.67107861719437" enable-background="new 0 33.947 100 36.669" xml:space="preserve" id="SvgjsSvg1465" width="123.74641073776293" height="45.65012294272739" class="icon-icon-0" data-fill-palette-color="quaternary"><g fill="black"><path d="M15.524 55.357A7.631 7.631 0 0 0 15.524 70.618 7.631 7.631 0 0 0 15.524 55.357M15.524 66.189A3.22 3.22 0 1 1 15.526 59.747 3.22 3.22 0 0 1 15.524 66.189" fill="black"></path><path d="M82.53 55.355A7.63 7.63 0 0 0 74.898 62.984 7.632 7.632 0 0 0 90.16 62.984 7.63 7.63 0 0 0 82.53 55.355M82.53 66.189A3.222 3.222 0 1 1 85.753 62.969 3.22 3.22 0 0 1 82.53 66.189" fill="black"></path><path d="M78.23 44.515S59.466 35.765 53.476 34.497C47.489 33.229 26.879 34.382 24.922 35.648L13.407 41.288 2.125 46.815 0.298 57.465S0.248 63.783 0.686 65.238H6.213L6.284 62.988C6.284 57.885 10.422 53.748 15.527 53.748 20.63 53.748 24.765 57.886 24.765 62.988L24.923 65.238H73.282L73.289 62.408C73.289 57.305 77.145 53.538 82.248 53.538S91.771 57.306 91.771 62.408L91.961 65.024S97.806 65.354 99.649 64.663C99.649 64.663 100.339 54.876 96.771 51.306 93.603 48.308 87.213 46.44 78.23 44.515M25.956 45.896S28.319 40.886 30.899 38.972C32.81 37.345 43.345 37.389 43.345 37.389L43.734 47.104zM71.613 48.198L46.915 47.22 46.338 37.374C55.492 37.03 65.914 41.923 71.901 45.434 77.89 48.946 71.613 48.198 71.613 48.198" fill="black"></path></g></svg></g></svg></g><g></g></svg></g></svg></g></svg></g></svg></g><defs><mask></mask></defs></svg><rect width="342.85155851775386" height="342.85155851775386" fill="black" stroke="none" visibility="hidden"></rect></g></mask><linearGradient x1="0" x2="1" y1="0.578" y2="0.595" id="16f6b1dd-dd9c-4c65-847a-bfafab8d3ab5"><stop stop-color="#6ee2f5" offset="0"></stop><stop stop-color="#6454f0" offset="1"></stop></linearGradient></svg><rect width="342.85155851775386" height="342.85155851775386" fill="none" stroke="none" visibility="hidden"></rect></g></svg></g></svg>